<?xml version="1.0" encoding="utf-8"?>
<!-- Generator: Adobe Illustrator 26.0.1, SVG Export Plug-In . SVG Version: 6.00 Build 0)  -->
<svg version="1.1" id="Layer_1" xmlns="http://www.w3.org/2000/svg" xmlns:xlink="http://www.w3.org/1999/xlink" x="0px" y="0px"
	 viewBox="0 0 283.47 283.47" style="enable-background:new 0 0 283.47 283.47;" xml:space="preserve">
<style type="text/css">
	.st0{fill-rule:evenodd;clip-rule:evenodd;fill:#102D69;}
	.st1{fill-rule:evenodd;clip-rule:evenodd;fill:#FFFFFF;}
</style>
<circle class="st0" cx="141.73" cy="141.74" r="141.73"/>
<path class="st1" d="M135.6,133.32c32.26,0,44.81,21.45,44.81,60.69v29.51h-20.69v-63.35h-23.9v63.42h-18.28V53.65h18.78
	c7.03,0,17.71,1.58,25.25,10.95c3.93,4.73,6.34,11.04,7.19,17.38h-32.94v9.35h33.23c-0.27,6.04-1.49,12.8-7.42,19.97
	c-5.2,6.51-13.76,12.56-25.83,12.56c-0.06,0-0.13,0-0.2,0V133.32 M206.41,197.55c0-34.86-11.26-58.29-40.45-68.6
	c9.21-3.77,14.82-9.58,18.49-13.99c7.01-8.06,9.88-17.96,9.88-27.31c0-7.56-2.08-22.65-15.35-33.04
	c-9.1-7.04-17.16-10.43-36.43-10.43h-9.75c-0.3-0.01-0.6-0.01-0.96-0.01H91.65v189.79h114.76V197.55z"/>
</svg>
